<?xml version="1.0" encoding="UTF-8"?>
<svg id="Layer_1" data-name="Layer 1" xmlns="http://www.w3.org/2000/svg" viewBox="0 0 864 611.53">
  <defs>
    <style>
      .cls-1 {
        fill: #fff;
      }
    </style>
  </defs>
  <g>
    <path class="cls-1" d="M95.71,503.83l-.07,29.72c0,1.24-.74,1.98-2.23,2.23h-11.03c-1.24,0-1.98-.74-2.23-2.23v-47.56c0-1.51.59-2.24,1.78-2.19l12.93-.04c2.5,0,4.14.57,4.9,1.71l8.99,12.08,8.99-12.08c.77-1.14,2.4-1.71,4.9-1.71h12.6c1.41,0,2.12.74,2.12,2.23v47.56c0,1.24-.74,1.98-2.23,2.23h-11.15c-1.24,0-1.98-.74-2.23-2.23v-29.69l-8.95,11.26c-2.7,3.44-5.4,3.44-8.1,0l-8.99-11.3Z"/>
    <path class="cls-1" d="M144.79,486c0-1.49.74-2.23,2.23-2.23h38.64c1.46,0,2.19.74,2.19,2.23v8.84c0,1.26-.73,1.99-2.19,2.19h-25.34v6.09h20.88c1.44,0,2.16.74,2.16,2.23v8.84c0,1.24-.72,1.97-2.16,2.19h-20.88v6.13h25.34c1.46.2,2.19.93,2.19,2.19v8.84c0,1.49-.73,2.23-2.19,2.23h-38.64c-1.49,0-2.23-.74-2.23-2.23v-47.56Z"/>
    <path class="cls-1" d="M210.89,510l-.11,23.56c0,1.24-.74,1.98-2.23,2.23h-11.03c-1.24,0-1.98-.74-2.23-2.23v-47.56c0-1.49.74-2.23,2.23-2.23h11.18c1.46,0,2.71.74,3.75,2.23l14.04,23.22v-23.22c.25-1.49.99-2.23,2.23-2.23h11.15c1.49.25,2.23.99,2.23,2.23v47.56c0,1.24-.74,1.98-2.23,2.23h-11.15c-1.24,0-2.5-.74-3.79-2.23l-14.04-23.56Z"/>
    <path class="cls-1" d="M268.4,509.85c0-18.01,8.67-27.01,26.01-27.01s26.01,9,26.01,27.01-8.67,27.05-26.01,27.05-26.01-9.02-26.01-27.05ZM294.41,522.86c6.89,0,10.33-4.33,10.33-13s-3.44-12.97-10.33-12.97-10.33,4.32-10.33,12.97,3.44,13,10.33,13Z"/>
    <path class="cls-1" d="M343.34,518.32v15.23c0,1.24-.74,1.98-2.23,2.23h-11.03c-1.24,0-1.98-.74-2.23-2.23v-47.56c0-1.49.74-2.23,2.23-2.23h38.6c1.46,0,2.19.74,2.19,2.23v8.84c0,1.26-.73,1.99-2.19,2.19h-25.34v8.03h20.88c1.44,0,2.16.74,2.16,2.23v8.84c0,1.24-.72,1.97-2.16,2.19h-20.88Z"/>
    <path class="cls-1" d="M423.19,535.79c-17.34,0-26.01-8.67-26.01-26.01s8.67-26.01,26.01-26.01h16.01c1.46,0,2.19.74,2.19,2.23v8.84c0,1.26-.73,1.99-2.19,2.19h-16.01c-6.91,0-10.37,4.25-10.37,12.74s3.46,12.74,10.37,12.74h7.91v-5.72h-5.68c-1.49-.2-2.23-.93-2.23-2.19v-8.84c0-1.49.74-2.23,2.23-2.23h18.99c1.46,0,2.19.74,2.19,2.23v27.79c-.2,1.49-.93,2.23-2.19,2.23h-21.22Z"/>
    <path class="cls-1" d="M456.22,483.77h9.92c1.46.22,2.19.95,2.19,2.19v27.87c0,5.65,3.39,8.47,10.18,8.47,5.82,0,8.73-2.94,8.73-8.81v-27.53c.22-1.46.95-2.19,2.19-2.19h9.88c1.49.22,2.23.95,2.23,2.19v29.72c0,14.12-7.69,21.18-23.07,21.18-16.3,0-24.45-6.69-24.45-20.06v-30.84c.22-1.46.95-2.19,2.19-2.19Z"/>
    <path class="cls-1" d="M508.98,486c.25-1.49.99-2.23,2.23-2.23h11.15c1.49.25,2.23.99,2.23,2.23v47.56c0,1.24-.74,1.98-2.23,2.23h-11.15c-1.24,0-1.98-.74-2.23-2.23v-47.56Z"/>
    <path class="cls-1" d="M555.42,535.79h-21.18c-1.49,0-2.23-.74-2.23-2.23v-47.56c0-1.49.74-2.23,2.23-2.23h21.18c17.34,0,26.01,8.67,26.01,26.01s-8.67,26.01-26.01,26.01ZM555.42,497.03h-7.91v25.49h7.91c6.91,0,10.37-4.25,10.37-12.74s-3.46-12.74-10.37-12.74Z"/>
    <path class="cls-1" d="M598.75,531.18l-1.45,2.9c-.4,1.14-2.01,1.71-4.83,1.71h-10.89c-1.21,0-1.21-1.04,0-3.12l23.33-47.74c1.71-3.52,3.42-3.52,5.13,0l23.33,47.74c1.16,2.08,1.16,3.12,0,3.12h-10.89c-2.8,0-4.41-.57-4.83-1.71l-1.45-2.9h-17.46ZM610.82,520.11l-3.34-6.76-3.31,6.76h6.65Z"/>
    <path class="cls-1" d="M653.44,510l-.11,23.56c0,1.24-.74,1.98-2.23,2.23h-11.03c-1.24,0-1.98-.74-2.23-2.23v-47.56c0-1.49.74-2.23,2.23-2.23h11.18c1.46,0,2.71.74,3.75,2.23l14.04,23.22v-23.22c.25-1.49.99-2.23,2.23-2.23h11.15c1.49.25,2.23.99,2.23,2.23v47.56c0,1.24-.74,1.98-2.23,2.23h-11.15c-1.24,0-2.5-.74-3.79-2.23l-14.04-23.56Z"/>
    <path class="cls-1" d="M716.97,522.52h13.78c1.46.2,2.19.93,2.19,2.19v8.84c0,1.49-.73,2.23-2.19,2.23h-13.78c-17.34,0-26.01-8.67-26.01-26.01s8.67-26.01,26.01-26.01h13.78c1.46,0,2.19.74,2.19,2.23v8.84c0,1.26-.73,1.99-2.19,2.19h-13.78c-6.91,0-10.37,4.25-10.37,12.74s3.46,12.74,10.37,12.74Z"/>
    <path class="cls-1" d="M740.38,486c0-1.49.74-2.23,2.23-2.23h38.64c1.46,0,2.19.74,2.19,2.23v8.84c0,1.26-.73,1.99-2.19,2.19h-25.34v6.09h20.88c1.44,0,2.16.74,2.16,2.23v8.84c0,1.24-.72,1.97-2.16,2.19h-20.88v6.13h25.34c1.46.2,2.19.93,2.19,2.19v8.84c0,1.49-.73,2.23-2.19,2.23h-38.64c-1.49,0-2.23-.74-2.23-2.23v-47.56Z"/>
  </g>
  <g>
    <polygon class="cls-1" points="731.28 74.63 678.69 74.63 626.1 74.63 575.05 74.63 573.52 74.63 524 74.63 524 127.22 573.52 127.22 575.05 127.22 626.1 127.22 678.69 127.22 731.28 127.22 731.28 179.11 653.93 179.11 601.34 179.11 601.34 231.7 653.93 231.7 731.28 231.7 737.06 231.7 783.86 231.7 783.86 206.94 783.86 127.22 783.86 74.63 731.28 74.63"/>
    <polygon class="cls-1" points="731.28 334.5 731.28 359.26 731.28 387.09 731.28 411.85 678.69 411.85 655.1 411.85 655.1 464.43 678.69 464.43 731.28 464.43 783.86 464.43 783.86 411.85 783.86 387.09 783.86 359.26 783.86 334.5 783.86 257.15 731.28 257.15 731.28 334.5"/>
    <polygon class="cls-1" points="706.52 387.09 706.52 362.33 706.52 334.5 706.52 309.74 706.52 257.15 653.93 257.15 601.34 257.15 601.34 309.74 653.93 309.74 653.93 334.5 601.34 334.5 576.58 334.5 576.58 309.74 576.58 257.15 576.58 204.57 576.58 176.74 576.58 153.45 524 153.45 524 176.74 524 204.57 524 257.15 524 309.74 524 334.5 524 362.33 524 387.09 548.76 387.09 576.58 387.09 601.34 387.09 653.93 387.09 706.52 387.09"/>
    <polygon class="cls-1" points="445.8 230.92 498.38 230.92 498.38 150.67 498.46 127.22 498.46 99.39 498.46 74.63 473.7 74.63 445.87 74.63 419.72 74.63 367.14 74.63 367.14 99.39 367.14 127.22 367.14 151.98 367.14 229.33 342.37 229.33 342.37 179.81 342.37 176.74 342.37 127.22 342.37 74.63 290.48 74.63 289.79 74.63 237.9 74.63 185.31 74.63 132.72 74.63 80.14 74.63 80.14 127.22 132.72 127.22 185.31 127.22 237.9 127.22 289.79 127.22 289.79 176.74 289.79 179.81 289.79 229.33 289.79 257.15 289.79 260.22 289.79 281.91 342.37 281.91 367.14 281.91 394.96 281.91 419.72 281.91 419.72 204.57 419.72 201.5 419.72 151.98 419.72 127.22 445.87 127.22 445.8 150.67 445.8 230.92"/>
    <polygon class="cls-1" points="445.87 306.67 445.87 359.26 445.87 411.85 445.87 464.43 498.46 464.43 498.46 411.85 498.46 359.26 498.46 306.67 498.46 257.15 445.87 257.15 445.87 306.67"/>
    <path class="cls-1" d="M367.83,359.26v52.59h-24.76v-105.17h-210.35v-24.76h132.3v-129.93h-52.59v77.35h-79.72v-77.35h-52.59v312.45h340.28v-157.76h-52.59v52.59ZM132.72,411.85v-52.59h52.59v52.59h-52.59ZM237.9,411.85v-52.59h52.59v52.59h-52.59Z"/>
    <rect class="cls-1" x="576.58" y="411.85" width="52.59" height="52.59"/>
  </g>
</svg>