<?xml version="1.0" encoding="UTF-8"?>
<svg id="Layer_2" data-name="Layer 2" xmlns="http://www.w3.org/2000/svg" viewBox="0 0 801.62 465.14">
  <defs>
    <style>
      .cls-1 {
        fill: #c55b7a;
      }
    </style>
  </defs>
  <g id="Layer_1-2" data-name="Layer 1">
    <g>
      <g>
        <path class="cls-1" d="M39.95,412.78c1.23,0,2.1.62,2.61,1.85l9.93,20.24,9.93-20.24c.39-1.09,1.96-1.63,4.71-1.63h10.62c1.09,0,1.09,1.01,0,3.04l-22.77,46.53c-1.67,3.43-3.34,3.43-5,0l-10.04-20.46-10.04,20.46c-1.67,3.43-3.34,3.43-5,0l-22.77-46.53c-1.18-2.03-1.18-3.04,0-3.04h10.62c2.76,0,4.33.54,4.71,1.63l9.93,20.24,9.93-20.24c.51-1.23,1.38-1.85,2.61-1.85Z"/>
        <path class="cls-1" d="M77.69,438.38c0-17.55,8.46-26.33,25.38-26.33s25.38,8.78,25.38,26.33-8.46,26.36-25.38,26.36-25.38-8.79-25.38-26.36ZM103.07,451.05c6.72,0,10.08-4.22,10.08-12.67s-3.36-12.64-10.08-12.64-10.08,4.21-10.08,12.64,3.36,12.67,10.08,12.67Z"/>
        <path class="cls-1" d="M148.69,432.51l-.07,28.97c0,1.21-.72,1.93-2.17,2.17h-10.77c-1.21,0-1.93-.72-2.18-2.17v-46.35c0-1.47.58-2.18,1.74-2.14l12.62-.04c2.44,0,4.04.56,4.79,1.67l8.77,11.77,8.77-11.77c.75-1.11,2.34-1.67,4.79-1.67h12.29c1.38,0,2.07.72,2.07,2.17v46.35c0,1.21-.73,1.93-2.18,2.17h-10.88c-1.21,0-1.93-.72-2.18-2.17v-28.93l-8.74,10.97c-2.63,3.36-5.27,3.36-7.9,0l-8.77-11.01Z"/>
        <path class="cls-1" d="M195.55,415.13c0-1.45.73-2.17,2.18-2.17h37.7c1.43,0,2.14.72,2.14,2.17v8.62c0,1.23-.71,1.94-2.14,2.14h-24.73v5.94h20.37c1.4,0,2.1.72,2.1,2.17v8.62c0,1.21-.7,1.92-2.1,2.14h-20.37v5.98h24.73c1.43.19,2.14.91,2.14,2.14v8.62c0,1.45-.71,2.17-2.14,2.17h-37.7c-1.45,0-2.18-.72-2.18-2.17v-46.35Z"/>
        <path class="cls-1" d="M258.44,438.52l-.11,22.96c0,1.21-.72,1.93-2.17,2.17h-10.77c-1.21,0-1.93-.72-2.18-2.17v-46.35c0-1.45.73-2.17,2.18-2.17h10.91c1.43,0,2.65.72,3.66,2.17l13.7,22.63v-22.63c.24-1.45.97-2.17,2.17-2.17h10.88c1.45.24,2.18.97,2.18,2.17v46.35c0,1.21-.73,1.93-2.18,2.17h-10.88c-1.21,0-2.44-.72-3.7-2.17l-13.7-22.96Z"/>
        <path class="cls-1" d="M310.7,438.38c0-17.55,8.46-26.33,25.38-26.33s25.38,8.78,25.38,26.33-8.46,26.36-25.38,26.36-25.38-8.79-25.38-26.36ZM336.07,451.05c6.72,0,10.08-4.22,10.08-12.67s-3.36-12.64-10.08-12.64-10.08,4.21-10.08,12.64,3.36,12.67,10.08,12.67Z"/>
        <path class="cls-1" d="M381.62,446.63v14.85c0,1.21-.72,1.93-2.17,2.17h-10.77c-1.21,0-1.93-.72-2.18-2.17v-46.35c0-1.45.73-2.17,2.18-2.17h37.67c1.43,0,2.14.72,2.14,2.17v8.62c0,1.23-.71,1.94-2.14,2.14h-24.73v7.82h20.38c1.4,0,2.1.72,2.1,2.17v8.62c0,1.21-.7,1.92-2.1,2.14h-20.38Z"/>
        <path class="cls-1" d="M455.67,463.65c-16.92,0-25.38-8.45-25.38-25.35s8.46-25.35,25.38-25.35h15.63c1.43,0,2.14.72,2.14,2.17v8.62c0,1.23-.71,1.94-2.14,2.14h-15.63c-6.74,0-10.12,4.14-10.12,12.42s3.37,12.42,10.12,12.42h7.72v-5.58h-5.55c-1.45-.19-2.18-.91-2.18-2.14v-8.62c0-1.45.73-2.17,2.18-2.17h18.53c1.43,0,2.14.72,2.14,2.17v27.09c-.19,1.45-.91,2.17-2.14,2.17h-20.7Z"/>
        <path class="cls-1" d="M485.98,412.96h9.68c1.43.22,2.14.93,2.14,2.14v27.16c0,5.5,3.31,8.26,9.93,8.26,5.68,0,8.52-2.86,8.52-8.58v-26.83c.22-1.42.93-2.14,2.14-2.14h9.64c1.45.22,2.18.93,2.18,2.14v28.97c0,13.76-7.5,20.64-22.51,20.64-15.9,0-23.85-6.52-23.85-19.55v-30.06c.22-1.42.93-2.14,2.14-2.14Z"/>
        <path class="cls-1" d="M536.3,415.13c.24-1.45.97-2.17,2.18-2.17h10.88c1.45.24,2.18.97,2.18,2.17v46.35c0,1.21-.73,1.93-2.18,2.17h-10.88c-1.21,0-1.93-.72-2.18-2.17v-46.35Z"/>
        <path class="cls-1" d="M580.59,463.65h-20.66c-1.45,0-2.18-.72-2.18-2.17v-46.35c0-1.45.73-2.17,2.18-2.17h20.66c16.92,0,25.38,8.45,25.38,25.35s-8.46,25.35-25.38,25.35ZM580.59,425.88h-7.72v24.84h7.72c6.74,0,10.12-4.14,10.12-12.42s-3.37-12.42-10.12-12.42Z"/>
        <path class="cls-1" d="M622,459.16l-1.41,2.82c-.39,1.11-1.96,1.67-4.71,1.67h-10.62c-1.18,0-1.18-1.01,0-3.04l22.77-46.53c1.67-3.43,3.34-3.43,5,0l22.77,46.53c1.14,2.03,1.14,3.04,0,3.04h-10.62c-2.73,0-4.3-.56-4.71-1.67l-1.41-2.82h-17.04ZM633.78,448.37l-3.26-6.59-3.23,6.59h6.49Z"/>
        <path class="cls-1" d="M674.58,438.52l-.11,22.96c0,1.21-.72,1.93-2.17,2.17h-10.77c-1.21,0-1.93-.72-2.18-2.17v-46.35c0-1.45.73-2.17,2.18-2.17h10.91c1.43,0,2.65.72,3.66,2.17l13.7,22.63v-22.63c.24-1.45.97-2.17,2.17-2.17h10.88c1.45.24,2.18.97,2.18,2.17v46.35c0,1.21-.73,1.93-2.18,2.17h-10.88c-1.21,0-2.44-.72-3.7-2.17l-13.7-22.96Z"/>
        <path class="cls-1" d="M734.97,450.72h13.45c1.43.19,2.14.91,2.14,2.14v8.62c0,1.45-.71,2.17-2.14,2.17h-13.45c-16.92,0-25.38-8.45-25.38-25.35s8.46-25.35,25.38-25.35h13.45c1.43,0,2.14.72,2.14,2.17v8.62c0,1.23-.71,1.94-2.14,2.14h-13.45c-6.74,0-10.11,4.14-10.11,12.42s3.37,12.42,10.11,12.42Z"/>
        <path class="cls-1" d="M755.98,415.13c0-1.45.73-2.17,2.18-2.17h37.7c1.43,0,2.14.72,2.14,2.17v8.62c0,1.23-.71,1.94-2.14,2.14h-24.73v5.94h20.37c1.4,0,2.1.72,2.1,2.17v8.62c0,1.21-.7,1.92-2.1,2.14h-20.37v5.98h24.73c1.43.19,2.14.91,2.14,2.14v8.62c0,1.45-.71,2.17-2.14,2.17h-37.7c-1.45,0-2.18-.72-2.18-2.17v-46.35Z"/>
      </g>
      <g>
        <polygon class="cls-1" points="365.96 234.33 365.96 286.92 365.96 339.51 365.96 392.09 418.55 392.09 418.55 339.51 418.55 286.92 418.55 234.33 418.55 184.81 365.96 184.81 365.96 234.33"/>
        <polygon class="cls-1" points="365.66 156.29 418.25 156.29 418.25 76.03 418.33 52.59 418.33 24.76 418.33 0 393.56 0 365.74 0 339.59 0 287 0 287 24.76 287 52.59 287 77.35 287 154.69 262.24 154.69 262.24 105.17 262.24 102.11 262.24 52.59 262.24 0 210.35 0 209.65 0 157.76 0 105.18 0 52.59 0 0 0 0 52.59 52.59 52.59 105.18 52.59 157.76 52.59 209.65 52.59 209.65 102.11 209.65 105.17 209.65 154.69 209.65 182.52 209.65 185.59 209.65 207.28 262.24 207.28 287 207.28 314.83 207.28 339.59 207.28 339.59 129.93 339.59 126.87 339.59 77.35 339.59 52.59 365.74 52.59 365.66 76.03 365.66 156.29"/>
        <path class="cls-1" d="M287.7,337.21h-24.76v-105.17H52.59v-24.76h132.3V77.35h-52.58v77.34H52.59v-77.34H0v312.45h340.28v-157.76h-52.58v105.17ZM105.18,337.21h-52.59v-52.58h52.59v52.58ZM210.35,337.21h-52.59v-52.58h52.59v52.58Z"/>
        <rect class="cls-1" x="749.03" y="206.54" width="52.59" height="46.55"/>
        <polygon class="cls-1" points="801.62 0 444.23 0 444.23 389.8 801.62 389.8 801.62 273.44 749.03 273.44 749.03 343.26 493.69 343.26 493.69 49.45 519.6 49.45 519.6 116.36 572.18 116.36 572.18 49.45 598.09 49.45 598.09 116.36 650.68 116.36 650.68 49.45 676.58 49.45 676.58 116.36 729.17 116.36 729.17 49.45 755.07 49.45 755.07 136.72 519.6 136.72 519.6 186.18 801.62 186.18 801.62 0"/>
        <polygon class="cls-1" points="729.17 247.54 729.17 206.54 650.68 206.54 601.22 206.54 601.22 273.44 519.6 273.44 519.6 322.9 601.22 322.9 650.68 322.9 729.17 322.9 729.17 273.44 650.68 273.44 650.68 247.54 729.17 247.54"/>
      </g>
    </g>
  </g>
</svg>